<?xml version="1.0" encoding="UTF-8"?>
<svg width="217.1" height="41.83" version="1.1" viewBox="0 0 217.1 41.83" xml:space="preserve" xmlns="http://www.w3.org/2000/svg">
<title>Visteon logo</title>
<desc>American automotive electronics company</desc>
<style type="text/css">
	.st0{fill:#F4901E;}
</style>
<g transform="translate(-31.45,-29.09)">
	<rect class="st0" x="73.16" y="37.09" width="5.6" height="32.45"/>
	<path class="st0" d="m226.04 36.29c-5.37 0-8.46 1.94-11.2 3.66v-2.86h-5.6v32.45h5.6v-26.4c1.94-0.91 5.6-2.17 9.71-2.17 4 0 5.26 2.29 5.26 6.86v21.71h5.6v-9.14-14.17c0-4.57-2.17-9.94-9.37-9.94z"/>
	<path class="st0" d="m118.98 37.2 1.26-8.11h4.34v8.11h8.57v4h-8.57v17.6c0 5.94 0.57 7.31 4 7.31 2.63 0 3.66-0.34 5.48-0.8v3.77c-2.29 1.14-4.34 1.83-6.86 1.83-5.94 0-8.23-3.88-8.23-9.71v-20h-4.8v-4z"/>
	<path class="st0" d="m107.09 41.89v-3.77c-2.29-1.03-4.8-1.6-8.57-1.6-5.14 0-10.97 2.29-10.97 8.68 0 4.8 3.2 6.86 6.17 8.57l4.11 2.17c2.51 1.37 5.14 2.86 5.14 5.94 0 2.97-1.94 4.46-5.94 4.46-4.23 0-6.17-0.46-9.48-1.03v3.77c2.86 1.14 6.06 1.83 9.71 1.83 4.68 0 11.31-1.71 11.31-9.71 0-4.57-3.43-7.54-6.51-9.26l-4.8-2.63c-3.2-1.71-4-2.63-4-4.46 0-2.74 3.09-3.88 6.17-3.88 2.86 0 4.92 0.12 7.66 0.92z"/>
	<path class="st0" d="m143.88 50.11c0.11-6.63 4-9.37 7.66-9.37 6.17 0 7.77 3.77 7.77 9.37zm8-13.59c-5.37 0-14.28 3.88-14.28 18.4 0 14.4 10.51 16 16 16 4.23 0 6.74-0.57 10.17-1.94v-3.66c-5.26 0.91-5.71 1.03-9.6 1.03-7.54 0-10.4-4.34-10.4-11.88v-0.8h21.02v-2.97c0.01-11.1-7.65-14.18-12.91-14.18z"/>
	<path class="st0" d="m177.59 53.66c0 10.51 4.34 13.37 9.14 13.37 4.68 0 8.91-2.86 8.91-13.37 0-10.4-4.23-13.25-8.91-13.25-5.82-0.01-9.14 2.73-9.14 13.25zm24.34 0c0 10.63-5.94 17.25-15.2 17.25s-15.31-6.63-15.31-17.25c0-10.51 6.06-17.14 15.31-17.14 9.26 0 15.2 6.62 15.2 17.14z"/>
	<polygon class="st0" points="52.47 70 67.21 29.09 61.16 29.09 49.62 62.34 37.85 29.09 31.45 29.09 46.53 70"/>
	<path class="st0" d="m244.78 38.92h0.57 0.57l0.23 0.23 0.11 0.23-0.23 0.34c-0.11 0.11-0.34 0.11-0.57 0.11h-0.69v-0.91zm0 2.74v-1.37h0.34c0.23 0 0.34 0 0.46 0.11 0.11 0.11 0.23 0.34 0.46 0.69l0.34 0.57h0.57l-0.34-0.69c-0.23-0.23-0.34-0.46-0.46-0.57l-0.34-0.23c0.34 0 0.57-0.11 0.69-0.23 0.23-0.23 0.23-0.34 0.23-0.69 0-0.11 0-0.23-0.11-0.46-0.11-0.11-0.23-0.23-0.34-0.23-0.23-0.11-0.46-0.11-0.91-0.11h-1.03v3.2h0.44zm-0.69-4.23c-0.46 0.23-0.8 0.57-1.03 1.14-0.34 0.46-0.46 0.91-0.46 1.37 0 0.57 0.11 1.03 0.46 1.49 0.23 0.46 0.57 0.91 1.03 1.14s1.03 0.34 1.49 0.34c0.57 0 1.03-0.11 1.49-0.34s0.8-0.69 1.14-1.14c0.23-0.46 0.34-0.91 0.34-1.49 0-0.46-0.11-0.91-0.34-1.37-0.34-0.57-0.69-0.91-1.14-1.14-0.46-0.23-0.91-0.34-1.49-0.34-0.46 0-0.92 0.11-1.49 0.34zm2.75 0.46c0.34 0.23 0.69 0.46 0.91 0.91 0.23 0.34 0.34 0.8 0.34 1.14 0 0.46-0.11 0.91-0.34 1.26-0.23 0.46-0.57 0.69-0.91 0.91s-0.8 0.34-1.26 0.34c-0.34 0-0.8-0.11-1.26-0.34-0.34-0.23-0.69-0.46-0.91-0.91-0.11-0.34-0.23-0.8-0.23-1.26 0-0.34 0.11-0.8 0.34-1.14 0.11-0.46 0.46-0.69 0.91-0.91 0.34-0.23 0.8-0.34 1.14-0.34 0.47 0 0.81 0.11 1.27 0.34z"/>
</g>
</svg>