<svg width="378" height="215" viewBox="0 0 378 215" fill="none" xmlns="http://www.w3.org/2000/svg">
<g filter="url(#filter0_f_1854_10335)">
<path d="M121.982 64.1074C115.728 64.1073 109.536 65.339 103.758 67.7321C97.9803 70.1252 92.7306 73.6329 88.3085 78.0548C83.8864 82.4768 80.3786 87.7265 77.9854 93.5041C75.5922 99.2817 74.3604 105.474 74.3604 111.728C74.3602 117.982 75.5919 124.174 77.9851 129.952C80.3783 135.73 83.8861 140.979 88.3081 145.402C92.7302 149.824 97.98 153.331 103.758 155.725C109.536 158.118 115.728 159.349 121.982 159.349C130.878 159.347 139.597 156.852 147.148 152.148C154.699 147.444 160.781 140.718 164.706 132.734H157.6C153.946 138.931 148.738 144.068 142.492 147.637C136.246 151.207 129.176 153.085 121.982 153.086C116.551 153.086 111.172 152.017 106.155 149.938C101.137 147.86 96.5774 144.813 92.7369 140.973C88.8964 137.132 85.85 132.573 83.7715 127.555C81.6931 122.537 80.6233 117.159 80.6234 111.728C80.6236 100.759 84.9811 90.2396 92.7373 82.4836C100.494 74.7276 111.013 70.3704 121.982 70.3704C129.722 70.3805 137.303 72.5623 143.865 76.6676C150.426 80.7729 155.704 86.637 159.098 93.593H165.913C162.327 84.885 156.239 77.436 148.419 72.1877C140.6 66.9394 131.399 64.1274 121.982 64.1074Z" fill="#F15CFF"/>
<path d="M163.589 49.7637V69.5694L152.708 80.4514L154.067 81.8102L165.511 70.3662V49.7637H163.589Z" fill="#F15CFF"/>
<path d="M132.632 19.6191V36.8339L121.542 47.9239V65.9344H123.464V48.7197L134.554 37.6296V19.6191H132.632Z" fill="#F15CFF"/>
<path d="M74.0527 53.0176V68.8113L87.2501 82.0087L88.6089 80.65L75.9745 68.0156V53.0176H74.0527Z" fill="#F15CFF"/>
<path d="M19.6182 99.7266V101.648H49.8491L60.7353 112.535H77.001V110.613H61.5311L50.6448 99.7266H19.6182Z" fill="#F15CFF"/>
<path d="M52.0498 124.857V126.779H78.4049V124.857H52.0498Z" fill="#F15CFF"/>
<path d="M85.8152 139.23L72.2671 152.779H37.9609V154.7H73.0628L87.1739 140.589L85.8152 139.23Z" fill="#F15CFF"/>
<path d="M99.8429 151.863L83.1719 161.488V190.27H85.0937V162.598L100.804 153.528L99.8429 151.863Z" fill="#F15CFF"/>
<path d="M114.366 158.566V191.444H116.288V158.566H114.366Z" fill="#F15CFF"/>
<path d="M142.361 151.625L141.002 152.984L154.746 166.727V194.706H156.668V165.931L142.361 151.625Z" fill="#F15CFF"/>
<path d="M159.323 139.361L157.963 140.72L170.052 152.81H192.434V150.888H170.848L159.323 139.361Z" fill="#F15CFF"/>
<path d="M74.8317 45.5273C72.5037 45.5273 70.5967 47.4343 70.5967 49.7624C70.5967 52.0905 72.5037 53.9985 74.8317 53.9985C77.1598 53.9985 79.0678 52.0905 79.0678 49.7624C79.0678 47.4343 77.1598 45.5273 74.8317 45.5273ZM74.8317 47.4491C76.1212 47.4491 77.146 48.4729 77.146 49.7624C77.146 51.0518 76.1212 52.0767 74.8317 52.0767C73.5423 52.0767 72.5185 51.0518 72.5185 49.7624C72.5185 48.4729 73.5423 47.4491 74.8317 47.4491Z" fill="#F15CFF"/>
<path d="M133.593 12.1074C131.265 12.1074 129.356 14.0155 129.356 16.3435C129.356 18.6716 131.265 20.5797 133.593 20.5797C135.921 20.5797 137.829 18.6716 137.829 16.3435C137.829 14.0155 135.921 12.1074 133.593 12.1074ZM133.593 14.0292C134.882 14.0292 135.907 15.0541 135.907 16.3435C135.907 17.633 134.882 18.6579 133.593 18.6579C132.303 18.6579 131.278 17.633 131.278 16.3435C131.278 15.0541 132.303 14.0292 133.593 14.0292Z" fill="#F15CFF"/>
<path d="M164.55 42.252C162.222 42.252 160.313 44.16 160.313 46.4881C160.313 48.8161 162.222 50.7231 164.55 50.7231C166.878 50.7231 168.786 48.8161 168.786 46.4881C168.786 44.16 166.878 42.2519 164.55 42.252ZM164.55 44.1738C165.839 44.1738 166.864 45.1986 166.864 46.4881C166.864 47.7775 165.839 48.8013 164.55 48.8013C163.26 48.8013 162.235 47.7775 162.235 46.4881C162.235 45.1986 163.26 44.1738 164.55 44.1738Z" fill="#F15CFF"/>
<path d="M195.71 147.611C193.382 147.611 191.474 149.519 191.474 151.847C191.474 154.176 193.382 156.082 195.71 156.082C198.038 156.082 199.945 154.176 199.945 151.847C199.945 149.519 198.038 147.611 195.71 147.611ZM195.71 149.533C196.999 149.533 198.023 150.558 198.023 151.847C198.023 153.137 196.999 154.161 195.71 154.161C194.42 154.161 193.395 153.137 193.395 151.847C193.395 150.558 194.42 149.533 195.71 149.533Z" fill="#F15CFF"/>
<path d="M155.708 193.744C153.38 193.744 151.472 195.652 151.472 197.98C151.472 200.308 153.38 202.216 155.708 202.216C158.036 202.216 159.944 200.308 159.944 197.98C159.944 195.652 158.036 193.744 155.708 193.744ZM155.708 195.666C156.997 195.666 158.022 196.691 158.022 197.98C158.022 199.27 156.997 200.295 155.708 200.295C154.418 200.295 153.393 199.27 153.393 197.98C153.393 196.691 154.418 195.666 155.708 195.666Z" fill="#F15CFF"/>
<path d="M115.327 190.484C112.999 190.484 111.091 192.392 111.091 194.72C111.091 197.049 112.999 198.957 115.327 198.957C117.655 198.957 119.563 197.049 119.563 194.72C119.563 192.392 117.655 190.484 115.327 190.484ZM115.327 192.406C116.616 192.406 117.641 193.431 117.641 194.72C117.641 196.01 116.616 197.035 115.327 197.035C114.037 197.035 113.013 196.01 113.013 194.72C113.013 193.431 114.037 192.406 115.327 192.406Z" fill="#F15CFF"/>
<path d="M84.1335 189.309C81.8054 189.309 79.8984 191.217 79.8984 193.545C79.8984 195.873 81.8054 197.781 84.1335 197.781C86.4615 197.781 88.3696 195.873 88.3696 193.545C88.3696 191.217 86.4615 189.309 84.1335 189.309ZM84.1335 191.23C85.4229 191.23 86.4478 192.255 86.4478 193.545C86.4478 194.834 85.4229 195.859 84.1335 195.859C82.844 195.859 81.8202 194.834 81.8202 193.545C81.8202 192.255 82.844 191.23 84.1335 191.23Z" fill="#F15CFF"/>
<path d="M34.6853 149.504C32.3573 149.504 30.4492 151.412 30.4492 153.74C30.4492 156.068 32.3573 157.975 34.6853 157.975C37.0134 157.975 38.9215 156.068 38.9215 153.74C38.9215 151.412 37.0134 149.504 34.6853 149.504ZM34.6853 151.426C35.9748 151.426 36.9997 152.451 36.9997 153.74C36.9997 155.029 35.9748 156.053 34.6853 156.053C33.3959 156.053 32.371 155.029 32.371 153.74C32.371 152.451 33.3959 151.426 34.6853 151.426Z" fill="#F15CFF"/>
<path d="M48.7762 121.582C46.4481 121.582 44.54 123.49 44.54 125.818C44.54 128.146 46.4481 130.054 48.7762 130.054C51.1042 130.054 53.0112 128.146 53.0112 125.818C53.0112 123.49 51.1042 121.582 48.7762 121.582ZM48.7762 123.504C50.0656 123.504 51.0894 124.529 51.0894 125.818C51.0894 127.108 50.0656 128.132 48.7762 128.132C47.4867 128.132 46.4618 127.108 46.4618 125.818C46.4618 124.529 47.4867 123.504 48.7762 123.504Z" fill="#F15CFF"/>
<path d="M16.3435 96.4531C14.0155 96.4531 12.1074 98.3601 12.1074 100.688C12.1074 103.016 14.0155 104.924 16.3435 104.924C18.6716 104.924 20.5786 103.016 20.5786 100.688C20.5786 98.3601 18.6716 96.4531 16.3435 96.4531ZM16.3435 98.3749C17.633 98.3749 18.6568 99.3987 18.6568 100.688C18.6568 101.978 17.633 103.002 16.3435 103.002C15.0541 103.002 14.0292 101.978 14.0292 100.688C14.0292 99.3987 15.0541 98.3749 16.3435 98.3749Z" fill="#F15CFF"/>
</g>
<path d="M121.982 64.1074C115.728 64.1073 109.536 65.339 103.758 67.7321C97.9803 70.1252 92.7306 73.6329 88.3085 78.0548C83.8864 82.4768 80.3786 87.7265 77.9854 93.5041C75.5922 99.2817 74.3604 105.474 74.3604 111.728C74.3602 117.982 75.5919 124.174 77.9851 129.952C80.3783 135.73 83.8861 140.979 88.3081 145.402C92.7302 149.824 97.98 153.331 103.758 155.725C109.536 158.118 115.728 159.349 121.982 159.349C130.878 159.347 139.597 156.852 147.148 152.148C154.699 147.444 160.781 140.718 164.706 132.734H157.6C153.946 138.931 148.738 144.068 142.492 147.637C136.246 151.207 129.176 153.085 121.982 153.086C116.551 153.086 111.172 152.017 106.155 149.938C101.137 147.86 96.5774 144.813 92.7369 140.973C88.8964 137.132 85.85 132.573 83.7715 127.555C81.6931 122.537 80.6233 117.159 80.6234 111.728C80.6236 100.759 84.9811 90.2396 92.7373 82.4836C100.494 74.7276 111.013 70.3704 121.982 70.3704C129.722 70.3805 137.303 72.5623 143.865 76.6676C150.426 80.7729 155.704 86.637 159.098 93.593H165.913C162.327 84.885 156.239 77.436 148.419 72.1877C140.6 66.9394 131.399 64.1274 121.982 64.1074Z" fill="white"/>
<path d="M163.589 49.7637V69.5694L152.708 80.4514L154.067 81.8102L165.511 70.3662V49.7637H163.589Z" fill="white"/>
<path d="M132.632 19.6191V36.8339L121.542 47.9239V65.9344H123.464V48.7197L134.554 37.6296V19.6191H132.632Z" fill="white"/>
<path d="M74.0527 53.0176V68.8113L87.2501 82.0087L88.6089 80.65L75.9745 68.0156V53.0176H74.0527Z" fill="white"/>
<path d="M19.6182 99.7266V101.648H49.8491L60.7353 112.535H77.001V110.613H61.5311L50.6448 99.7266H19.6182Z" fill="white"/>
<path d="M52.0498 124.857V126.779H78.4049V124.857H52.0498Z" fill="white"/>
<path d="M85.8152 139.23L72.2671 152.779H37.9609V154.7H73.0628L87.1739 140.589L85.8152 139.23Z" fill="white"/>
<path d="M99.8429 151.863L83.1719 161.488V190.27H85.0937V162.598L100.804 153.528L99.8429 151.863Z" fill="white"/>
<path d="M114.366 158.566V191.444H116.288V158.566H114.366Z" fill="white"/>
<path d="M142.361 151.625L141.002 152.984L154.746 166.727V194.706H156.668V165.931L142.361 151.625Z" fill="white"/>
<path d="M159.323 139.361L157.963 140.72L170.052 152.81H192.434V150.888H170.848L159.323 139.361Z" fill="white"/>
<path d="M74.8317 45.5273C72.5037 45.5273 70.5967 47.4343 70.5967 49.7624C70.5967 52.0905 72.5037 53.9985 74.8317 53.9985C77.1598 53.9985 79.0678 52.0905 79.0678 49.7624C79.0678 47.4343 77.1598 45.5273 74.8317 45.5273ZM74.8317 47.4491C76.1212 47.4491 77.146 48.4729 77.146 49.7624C77.146 51.0518 76.1212 52.0767 74.8317 52.0767C73.5423 52.0767 72.5185 51.0518 72.5185 49.7624C72.5185 48.4729 73.5423 47.4491 74.8317 47.4491Z" fill="white"/>
<path d="M133.593 12.1074C131.265 12.1074 129.356 14.0155 129.356 16.3435C129.356 18.6716 131.265 20.5797 133.593 20.5797C135.921 20.5797 137.829 18.6716 137.829 16.3435C137.829 14.0155 135.921 12.1074 133.593 12.1074ZM133.593 14.0292C134.882 14.0292 135.907 15.0541 135.907 16.3435C135.907 17.633 134.882 18.6579 133.593 18.6579C132.303 18.6579 131.278 17.633 131.278 16.3435C131.278 15.0541 132.303 14.0292 133.593 14.0292Z" fill="white"/>
<path d="M164.55 42.252C162.222 42.252 160.313 44.16 160.313 46.4881C160.313 48.8161 162.222 50.7231 164.55 50.7231C166.878 50.7231 168.786 48.8161 168.786 46.4881C168.786 44.16 166.878 42.2519 164.55 42.252ZM164.55 44.1738C165.839 44.1738 166.864 45.1986 166.864 46.4881C166.864 47.7775 165.839 48.8013 164.55 48.8013C163.26 48.8013 162.235 47.7775 162.235 46.4881C162.235 45.1986 163.26 44.1738 164.55 44.1738Z" fill="white"/>
<path d="M195.71 147.611C193.382 147.611 191.474 149.519 191.474 151.847C191.474 154.176 193.382 156.082 195.71 156.082C198.038 156.082 199.945 154.176 199.945 151.847C199.945 149.519 198.038 147.611 195.71 147.611ZM195.71 149.533C196.999 149.533 198.023 150.558 198.023 151.847C198.023 153.137 196.999 154.161 195.71 154.161C194.42 154.161 193.395 153.137 193.395 151.847C193.395 150.558 194.42 149.533 195.71 149.533Z" fill="white"/>
<path d="M155.708 193.744C153.38 193.744 151.472 195.652 151.472 197.98C151.472 200.308 153.38 202.216 155.708 202.216C158.036 202.216 159.944 200.308 159.944 197.98C159.944 195.652 158.036 193.744 155.708 193.744ZM155.708 195.666C156.997 195.666 158.022 196.691 158.022 197.98C158.022 199.27 156.997 200.295 155.708 200.295C154.418 200.295 153.393 199.27 153.393 197.98C153.393 196.691 154.418 195.666 155.708 195.666Z" fill="white"/>
<path d="M115.327 190.484C112.999 190.484 111.091 192.392 111.091 194.72C111.091 197.049 112.999 198.957 115.327 198.957C117.655 198.957 119.563 197.049 119.563 194.72C119.563 192.392 117.655 190.484 115.327 190.484ZM115.327 192.406C116.616 192.406 117.641 193.431 117.641 194.72C117.641 196.01 116.616 197.035 115.327 197.035C114.037 197.035 113.013 196.01 113.013 194.72C113.013 193.431 114.037 192.406 115.327 192.406Z" fill="white"/>
<path d="M84.1335 189.309C81.8054 189.309 79.8984 191.217 79.8984 193.545C79.8984 195.873 81.8054 197.781 84.1335 197.781C86.4615 197.781 88.3696 195.873 88.3696 193.545C88.3696 191.217 86.4615 189.309 84.1335 189.309ZM84.1335 191.23C85.4229 191.23 86.4478 192.255 86.4478 193.545C86.4478 194.834 85.4229 195.859 84.1335 195.859C82.844 195.859 81.8202 194.834 81.8202 193.545C81.8202 192.255 82.844 191.23 84.1335 191.23Z" fill="white"/>
<path d="M34.6853 149.504C32.3573 149.504 30.4492 151.412 30.4492 153.74C30.4492 156.068 32.3573 157.975 34.6853 157.975C37.0134 157.975 38.9215 156.068 38.9215 153.74C38.9215 151.412 37.0134 149.504 34.6853 149.504ZM34.6853 151.426C35.9748 151.426 36.9997 152.451 36.9997 153.74C36.9997 155.029 35.9748 156.053 34.6853 156.053C33.3959 156.053 32.371 155.029 32.371 153.74C32.371 152.451 33.3959 151.426 34.6853 151.426Z" fill="white"/>
<path d="M48.7762 121.582C46.4481 121.582 44.54 123.49 44.54 125.818C44.54 128.146 46.4481 130.054 48.7762 130.054C51.1042 130.054 53.0112 128.146 53.0112 125.818C53.0112 123.49 51.1042 121.582 48.7762 121.582ZM48.7762 123.504C50.0656 123.504 51.0894 124.529 51.0894 125.818C51.0894 127.108 50.0656 128.132 48.7762 128.132C47.4867 128.132 46.4618 127.108 46.4618 125.818C46.4618 124.529 47.4867 123.504 48.7762 123.504Z" fill="white"/>
<path d="M16.3435 96.4531C14.0155 96.4531 12.1074 98.3601 12.1074 100.688C12.1074 103.016 14.0155 104.924 16.3435 104.924C18.6716 104.924 20.5786 103.016 20.5786 100.688C20.5786 98.3601 18.6716 96.4531 16.3435 96.4531ZM16.3435 98.3749C17.633 98.3749 18.6568 99.3987 18.6568 100.688C18.6568 101.978 17.633 103.002 16.3435 103.002C15.0541 103.002 14.0292 101.978 14.0292 100.688C14.0292 99.3987 15.0541 98.3749 16.3435 98.3749Z" fill="white"/>
<g filter="url(#filter1_f_1854_10335)">
<path d="M146.064 107.041V103.386H171.038L168.133 97.0134H139.177V107.041H146.064ZM164.479 116.599L161.574 110.227H139.177V116.599H164.479ZM163.776 116.177H139.598V110.648H161.293L163.776 116.177ZM168.133 129.812L171.038 123.44H146.064V119.785H139.177V129.812H168.133ZM205.29 129.812L202.385 123.44H190.437C186.032 123.44 183.174 122.456 181.721 121.378C180.316 120.347 179.519 118.661 179.519 115.146V111.679C179.519 108.165 180.316 106.478 181.721 105.401C183.174 104.37 185.376 103.386 190.437 103.386H194.747V97.0134H190.437C185.329 97.0134 180.972 97.7163 177.645 100.153C174.318 102.636 172.678 106.712 172.632 111.445V115.381C172.678 120.113 174.318 124.236 177.645 126.673C180.972 129.109 185.329 129.812 190.437 129.812H205.29ZM205.149 110.508V97.0134H198.261V107.603L205.149 110.508ZM179.098 111.445H173.1C173.147 106.806 174.693 102.87 177.879 100.528C181.112 98.138 185.329 97.4351 190.437 97.4351H194.326V102.964H190.437C185.329 102.964 182.987 103.948 181.487 105.073C179.941 106.197 179.144 108.024 179.098 111.445ZM245.398 129.812V97.0134H238.463V115.521L235.558 110.227H215.692V97.0134H208.804V129.812H215.692V111.304L218.597 116.599H238.463V129.812H245.398ZM215.27 110.227H209.226V97.4351H215.27V110.227ZM244.929 129.391H238.885V116.599H244.929V129.391ZM269.903 129.812V117.63H270.091C269.903 117.396 269.903 117.536 269.903 117.208H269.81L256.222 97.0134H247.506L262.969 117.489V129.812H269.903ZM272.012 114.725L285.366 97.0134H276.65L268.123 109.196L272.012 114.725ZM269.294 117.208H263.297L248.397 97.4351H255.987L269.294 117.208ZM302.608 130.374V123.44C298.017 123.44 295.205 122.69 293.706 121.566C292.207 120.441 291.457 118.754 291.457 115.24V111.585C291.457 109.758 291.691 108.446 292.066 107.462C293.19 104.51 296.236 103.386 302.608 103.386V96.4512H302.374C297.22 96.4512 292.862 97.2009 289.489 99.7779C286.209 102.308 284.616 106.525 284.569 111.398V115.428C284.616 120.301 286.209 124.518 289.489 127.048C292.909 129.672 297.314 130.374 302.608 130.374ZM304.951 130.374C310.105 130.374 314.463 129.625 317.836 127.048C321.116 124.518 322.709 120.301 322.756 115.428V111.398C322.709 106.525 321.116 102.308 317.836 99.7779C314.463 97.2009 310.105 96.4512 304.951 96.4512H304.764V103.386C309.309 103.386 312.12 104.135 313.619 105.26C315.119 106.385 315.869 108.071 315.869 111.585V115.24C315.869 117.068 315.634 118.38 315.259 119.363C314.135 122.315 311.089 123.44 304.764 123.44V130.374H304.951ZM322.335 111.398H316.29C316.196 104.463 312.729 103.011 305.185 102.964V96.9197C310.152 96.9197 314.369 97.6694 317.555 100.106C320.741 102.542 322.288 106.619 322.335 111.398ZM302.14 129.906C297.173 129.906 292.956 129.156 289.77 126.72C286.584 124.283 285.084 120.207 285.038 115.428H291.035C291.129 122.362 294.596 123.815 302.14 123.862V129.906ZM363.192 129.812L334.892 97.0134H326.13L354.43 129.812H363.192ZM362.958 126.954V97.0134H356.07V118.942L362.958 126.954ZM362.536 125.783L356.492 118.801V97.4351H362.536V125.783ZM333.299 129.812V107.884L326.364 99.8716V129.812H333.299ZM332.877 129.391H326.833V101.043L332.877 108.024V129.391Z" fill="url(#paint0_linear_1854_10335)"/>
</g>
<g filter="url(#filter2_f_1854_10335)">
<path d="M98.1576 83.9941L93.6201 93.9485H149.465L144.928 83.9941H98.1576ZM116.675 84.6526H126.41L131.094 93.29H111.991L116.675 84.6526ZM116.163 98.3401V108.898L112.861 111.25V115.657L130.71 102.942V98.5353L126.922 101.234V98.3401H116.163ZM126.922 109.046L116.163 115.259V120.887L112.861 123.239V127.645L130.71 114.931V110.524L126.922 113.222V109.046ZM126.922 121.036L116.163 127.248V132.877L112.861 135.229V139.635L130.71 126.921V122.514L126.922 125.212V121.036ZM126.922 133.026L116.163 139.237V141.078H126.922V133.026Z" fill="url(#paint1_linear_1854_10335)"/>
<path d="M97.882 83.5645L97.7673 83.8154L92.9531 94.3767H150.132L145.203 83.5645H97.882ZM98.4333 84.4224H116.312L116.298 84.4471L111.379 93.5188H94.2872L98.4333 84.4224ZM126.773 84.4224H144.652L148.798 93.5188H131.707L126.773 84.4224ZM116.932 85.0809H126.155L130.374 92.8603H112.713L116.932 85.0809ZM131.139 97.7024L127.351 100.401V97.9104H115.734V98.3394V108.677L112.432 111.028V116.488L131.139 103.162V97.7024ZM116.592 98.7684H126.494V102.065L130.281 99.3668V102.72L113.29 114.824V111.47L116.592 109.118V98.7684ZM127.351 108.302L126.708 108.674L115.734 115.01V120.665L112.432 123.017V128.477L131.139 115.151V109.691L127.351 112.389V108.302ZM126.494 109.788V114.054L130.281 111.356V114.709L113.29 126.813V123.459L116.592 121.107V115.506L126.494 109.788ZM127.351 120.292L126.708 120.664L115.734 126.999V132.655L112.432 135.007V140.467L131.139 127.141V121.681L127.351 124.379V120.292ZM126.494 121.777V126.044L130.281 123.345V126.699L113.29 138.802V135.449L116.592 133.097V127.495L126.494 121.777ZM127.351 132.282L126.708 132.654L115.734 138.989V141.506H127.351V132.282ZM126.494 133.767V140.648H116.592V139.484L126.494 133.767Z" fill="url(#paint2_linear_1854_10335)"/>
</g>
<path d="M146.064 107.04V103.386H171.038L168.133 97.0134H139.177V107.04H146.064ZM164.479 116.599L161.574 110.227H139.177V116.599H164.479ZM163.776 116.177H139.598V110.648H161.293L163.776 116.177ZM168.133 129.812L171.038 123.44H146.064V119.785H139.177V129.812H168.133ZM205.29 129.812L202.385 123.44H190.437C186.032 123.44 183.174 122.456 181.721 121.378C180.316 120.347 179.519 118.661 179.519 115.146V111.679C179.519 108.165 180.316 106.478 181.721 105.401C183.174 104.37 185.376 103.386 190.437 103.386H194.747V97.0134H190.437C185.329 97.0134 180.972 97.7163 177.645 100.153C174.318 102.636 172.678 106.712 172.632 111.445V115.381C172.678 120.113 174.318 124.236 177.645 126.673C180.972 129.109 185.329 129.812 190.437 129.812H205.29ZM205.149 110.508V97.0134H198.261V107.603L205.149 110.508ZM179.098 111.445H173.1C173.147 106.806 174.693 102.87 177.879 100.528C181.112 98.138 185.329 97.4351 190.437 97.4351H194.326V102.964H190.437C185.329 102.964 182.987 103.948 181.487 105.073C179.941 106.197 179.144 108.024 179.098 111.445ZM245.398 129.812V97.0134H238.463V115.521L235.558 110.227H215.692V97.0134H208.804V129.812H215.692V111.304L218.597 116.599H238.463V129.812H245.398ZM215.27 110.227H209.226V97.4351H215.27V110.227ZM244.929 129.391H238.885V116.599H244.929V129.391ZM269.903 129.812V117.63H270.091C269.903 117.396 269.903 117.536 269.903 117.208H269.81L256.222 97.0134H247.506L262.969 117.489V129.812H269.903ZM272.012 114.725L285.366 97.0134H276.651L268.123 109.196L272.012 114.725ZM269.294 117.208H263.297L248.397 97.4351H255.987L269.294 117.208ZM302.608 130.374V123.44C298.017 123.44 295.205 122.69 293.706 121.566C292.207 120.441 291.457 118.754 291.457 115.24V111.585C291.457 109.758 291.691 108.446 292.066 107.462C293.191 104.51 296.236 103.386 302.608 103.386V96.4512H302.374C297.22 96.4512 292.862 97.2008 289.489 99.7779C286.209 102.308 284.616 106.525 284.569 111.398V115.428C284.616 120.301 286.209 124.518 289.489 127.048C292.909 129.672 297.314 130.374 302.608 130.374ZM304.951 130.374C310.105 130.374 314.463 129.625 317.836 127.048C321.116 124.518 322.709 120.301 322.756 115.428V111.398C322.709 106.525 321.116 102.308 317.836 99.7779C314.463 97.2008 310.105 96.4512 304.951 96.4512H304.764V103.386C309.309 103.386 312.12 104.135 313.619 105.26C315.119 106.385 315.869 108.071 315.869 111.585V115.24C315.869 117.068 315.634 118.379 315.259 119.363C314.135 122.315 311.089 123.44 304.764 123.44V130.374H304.951ZM322.335 111.398H316.29C316.197 104.463 312.729 103.011 305.185 102.964V96.9197C310.152 96.9197 314.369 97.6694 317.555 100.106C320.741 102.542 322.288 106.619 322.335 111.398ZM302.14 129.906C297.173 129.906 292.956 129.156 289.77 126.72C286.584 124.283 285.085 120.207 285.038 115.428H291.035C291.129 122.362 294.596 123.815 302.14 123.862V129.906ZM363.192 129.812L334.892 97.0134H326.13L354.43 129.812H363.192ZM362.958 126.954V97.0134H356.07V118.942L362.958 126.954ZM362.536 125.783L356.492 118.801V97.4352H362.536V125.783ZM333.299 129.812V107.884L326.364 99.8716V129.812H333.299ZM332.877 129.391H326.833V101.043L332.877 108.024V129.391Z" fill="#F9F9F9" stroke="white"/>
<path d="M98.1576 83.9941L93.6201 93.9485H149.465L144.928 83.9941H98.1576ZM116.675 84.6526H126.41L131.094 93.29H111.991L116.675 84.6526ZM116.163 98.3401V108.898L112.861 111.25V115.657L130.71 102.942V98.5353L126.922 101.234V98.3401H116.163ZM126.922 109.046L116.163 115.259V120.887L112.861 123.239V127.645L130.71 114.931V110.524L126.922 113.222V109.046ZM126.922 121.036L116.163 127.248V132.877L112.861 135.229V139.635L130.71 126.921V122.514L126.922 125.212V121.036ZM126.922 133.026L116.163 139.237V141.078H126.922V133.026Z" fill="#F9F9F9" stroke="white" stroke-width="0.549087"/>
<path d="M97.882 83.5645L97.7673 83.8154L92.9531 94.3767H150.132L145.203 83.5645H97.882ZM98.4333 84.4224H116.312L116.298 84.4471L111.379 93.5188H94.2872L98.4333 84.4224ZM126.773 84.4224H144.652L148.798 93.5188H131.707L126.773 84.4224ZM116.932 85.0809H126.155L130.374 92.8603H112.713L116.932 85.0809ZM131.139 97.7024L127.351 100.401V97.9104H115.734V98.3394V108.677L112.432 111.028V116.488L131.139 103.162V97.7024ZM116.592 98.7684H126.494V102.065L130.281 99.3668V102.72L113.29 114.824V111.47L116.592 109.118V98.7684ZM127.351 108.302L126.708 108.674L115.734 115.01V120.665L112.432 123.017V128.477L131.139 115.151V109.691L127.351 112.389V108.302ZM126.494 109.788V114.054L130.281 111.356V114.709L113.29 126.813V123.459L116.592 121.107V115.506L126.494 109.788ZM127.351 120.292L126.708 120.664L115.734 126.999V132.655L112.432 135.007V140.467L131.139 127.141V121.681L127.351 124.379V120.292ZM126.494 121.777V126.044L130.281 123.345V126.699L113.29 138.802V135.449L116.592 133.097V127.495L126.494 121.777ZM127.351 132.282L126.708 132.654L115.734 138.989V141.506H127.351V132.282ZM126.494 133.767V140.648H116.592V139.484L126.494 133.767Z" fill="#F9F9F9" stroke="white" stroke-width="0.549087"/>
<path d="M231.083 174L234.27 159.05L240.747 153.713H250.618L252.535 152.133L253.701 146.64L252.458 145.06H246.136L244.219 146.64L243.415 150.345H236.109L237.664 143.065L244.141 137.727H257.562L261.759 143.065L259.065 155.708L252.587 161.045H242.716L240.825 162.626L239.944 166.668H256.733L255.178 174H231.083ZM233.596 172.005H253.442L254.142 168.689H237.638L239.14 161.564L242.327 158.947H252.017L257.355 154.568L259.609 143.945L256.189 139.619H244.815L239.555 143.945L238.622 148.376H241.939L242.535 145.552L245.721 142.935H253.857L255.93 145.552L254.349 152.962L251.11 155.63H241.42L236.135 159.957L233.596 172.005ZM264.404 174L260.207 168.663L265.647 143.065L272.125 137.727H286.712L290.909 143.065L285.468 168.663L278.991 174H264.404ZM270.57 166.668H277.488L279.405 165.087L282.126 152.288L270.57 166.668ZM268.29 168.611L267.798 167.523L284.147 146.666L285.002 147.314L281.037 165.994L277.851 168.611H268.29ZM265.699 171.927H278.498L283.758 167.6L288.784 143.997L285.364 139.67H272.539L267.306 143.997L262.279 167.6L265.699 171.927ZM266.14 164.051L270.052 145.604L273.213 143.013H282.592L283.084 144.075L266.917 164.673L266.14 164.051ZM269.119 158.869L280.208 145.06H273.653L271.71 146.64L269.119 158.869ZM288.214 174L291.401 159.05L297.878 153.713H307.75L309.667 152.133L310.833 146.64L309.589 145.06H303.267L301.35 146.64L300.547 150.345H293.241L294.795 143.065L301.272 137.727H314.693L318.891 143.065L316.196 155.708L309.719 161.045H299.847L297.956 162.626L297.075 166.668H313.864L312.31 174H288.214ZM290.727 172.005H310.574L311.273 168.689H294.769L296.272 161.564L299.459 158.947H309.149L314.486 154.568L316.74 143.945L313.32 139.619H301.946L296.687 143.945L295.754 148.376H299.07L299.666 145.552L302.853 142.935H310.988L313.061 145.552L311.481 152.962L308.242 155.63H298.552L293.267 159.957L290.727 172.005ZM329.515 174L331.277 165.683H317.312L319.126 157.211L333.402 137.727H344.569L340.19 158.351H344.491L342.91 165.683H338.61L336.848 174H329.515ZM331.977 172.186H335.319L337.081 163.844H341.641L342.366 160.501H337.806L342.211 139.67H334.309L321.147 157.366L319.774 163.844H333.765L331.977 172.186ZM324.178 160.501L324.878 157.185L335.19 143.324H338.117L334.464 160.501H324.178ZM326.95 158.351H332.858L335.526 145.733H335.293L327.184 157.185L326.95 158.351Z" fill="white"/>
<defs>
<filter id="filter0_f_1854_10335" x="2.01768" y="2.01768" width="208.016" height="210.289" filterUnits="userSpaceOnUse" color-interpolation-filters="sRGB">
<feFlood flood-opacity="0" result="BackgroundImageFix"/>
<feBlend mode="normal" in="SourceGraphic" in2="BackgroundImageFix" result="shape"/>
<feGaussianBlur stdDeviation="5.04487" result="effect1_foregroundBlur_1854_10335"/>
</filter>
<filter id="filter1_f_1854_10335" x="126.877" y="84.1511" width="248.616" height="58.5239" filterUnits="userSpaceOnUse" color-interpolation-filters="sRGB">
<feFlood flood-opacity="0" result="BackgroundImageFix"/>
<feBlend mode="normal" in="SourceGraphic" in2="BackgroundImageFix" result="shape"/>
<feGaussianBlur stdDeviation="6.15003" result="effect1_foregroundBlur_1854_10335"/>
</filter>
<filter id="filter2_f_1854_10335" x="80.6531" y="71.2644" width="81.7788" height="82.5415" filterUnits="userSpaceOnUse" color-interpolation-filters="sRGB">
<feFlood flood-opacity="0" result="BackgroundImageFix"/>
<feBlend mode="normal" in="SourceGraphic" in2="BackgroundImageFix" result="shape"/>
<feGaussianBlur stdDeviation="6.15003" result="effect1_foregroundBlur_1854_10335"/>
</filter>
<linearGradient id="paint0_linear_1854_10335" x1="83.473" y1="112.534" x2="369.927" y2="112.534" gradientUnits="userSpaceOnUse">
<stop stop-color="#2AF2FF"/>
<stop offset="0.26689" stop-color="#2ABAFF"/>
<stop offset="0.461739" stop-color="#39CBFF"/>
<stop offset="0.538" stop-color="#2A97FF"/>
<stop offset="0.681094" stop-color="#39B7FF"/>
<stop offset="1" stop-color="#2AF6FF"/>
</linearGradient>
<linearGradient id="paint1_linear_1854_10335" x1="83.4731" y1="112.536" x2="369.927" y2="112.536" gradientUnits="userSpaceOnUse">
<stop stop-color="#2AF2FF"/>
<stop offset="0.26689" stop-color="#2ABAFF"/>
<stop offset="0.461739" stop-color="#39CBFF"/>
<stop offset="0.538" stop-color="#2A97FF"/>
<stop offset="0.681094" stop-color="#39B7FF"/>
<stop offset="1" stop-color="#2AF6FF"/>
</linearGradient>
<linearGradient id="paint2_linear_1854_10335" x1="83.4731" y1="112.535" x2="369.927" y2="112.535" gradientUnits="userSpaceOnUse">
<stop stop-color="#2AF2FF"/>
<stop offset="0.26689" stop-color="#2ABAFF"/>
<stop offset="0.461739" stop-color="#39CBFF"/>
<stop offset="0.538" stop-color="#2A97FF"/>
<stop offset="0.681094" stop-color="#39B7FF"/>
<stop offset="1" stop-color="#2AF6FF"/>
</linearGradient>
</defs>
</svg>
